<?xml version="1.0" encoding="UTF-8"?>
<svg width="411px" height="125px" viewBox="0 0 411 125" version="1.1" xmlns="http://www.w3.org/2000/svg" xmlns:xlink="http://www.w3.org/1999/xlink">
    <title>Libre-hrz-rgb-rev </title>
    <defs>
        <radialGradient cx="0%" cy="0%" fx="0%" fy="0%" r="141.421489%" id="radialGradient-1">
            <stop stop-color="#FC8359" offset="0%"></stop>
            <stop stop-color="#FCC167" offset="99.9511%"></stop>
        </radialGradient>
    </defs>
    <g id="Libre-hrz-rgb-rev-" stroke="none" stroke-width="1" fill="none" fill-rule="evenodd">
        <g id="Group-Copy" transform="translate(24.000000, 24.000000)" fill-rule="nonzero">
            <g id="Libre" transform="translate(114.000000, 0.000000)" fill="#FFFFFF">
                <path d="M0,75.4782609 L0,0 L12.3199103,0 L12.3199103,64.4202899 L42.7157546,64.4202899 L42.7157546,75.4782609 L0,75.4782609 Z M71.4899327,7.60869565 C71.4899327,8.89371981 71.1701536,10.0772947 70.5305954,11.1594203 C69.8910373,12.2415459 69.0326829,13.1038647 67.9555322,13.7463768 C66.8783816,14.3888889 65.7002481,14.7101449 64.4211317,14.7101449 C63.1420154,14.7101449 61.9638819,14.3888889 60.8867312,13.7463768 C59.8095806,13.1038647 58.9512262,12.2415459 58.311668,11.1594203 C57.6721098,10.0772947 57.3523307,8.89371981 57.3523307,7.60869565 C57.3523307,6.3236715 57.6721098,5.14009662 58.311668,4.05797101 C58.9512262,2.97584541 59.8095806,2.11352657 60.8867312,1.47101449 C61.9638819,0.828502415 63.1420154,0.507246377 64.4211317,0.507246377 C65.7002481,0.507246377 66.8783816,0.828502415 67.9555322,1.47101449 C69.0326829,2.11352657 69.8910373,2.97584541 70.5305954,4.05797101 C71.1701536,5.14009662 71.4899327,6.3236715 71.4899327,7.60869565 Z M58.6651081,75.4782609 L58.6651081,22.4202899 L70.2781383,22.4202899 L70.2781383,75.4782609 L58.6651081,75.4782609 Z M88.1461663,75.4782609 L88.1461663,0 L99.7591965,0 L99.7591965,30.1304348 C101.64421,27.2222222 104.10146,24.9565217 107.130946,23.3333333 C110.160432,21.7101449 113.492867,20.8985507 117.12825,20.8985507 C120.62899,20.8985507 123.877272,21.6086957 126.873097,23.0289855 C129.868923,24.4492754 132.477647,26.410628 134.69927,28.9130435 C136.920893,31.4154589 138.654432,34.3574879 139.899888,37.7391304 C141.145343,41.1207729 141.768071,44.7729469 141.768071,48.6956522 C141.768071,52.6859903 141.128513,56.4057971 139.849396,59.8550725 C138.57028,63.3043478 136.786249,66.3140097 134.497304,68.884058 C132.208359,71.4541063 129.532313,73.4492754 126.469166,74.8695652 C123.406019,76.2898551 120.090415,77 116.522353,77 C112.819648,77 109.470383,76.1884058 106.474557,74.5652174 C103.478732,72.942029 101.071974,70.6425121 99.2542822,67.6666667 L98.7493678,75.4782609 L88.1461663,75.4782609 Z M114.704661,66.4492754 C117.599504,66.4492754 120.191397,65.6884058 122.480343,64.1666667 C124.769288,62.6449275 126.570149,60.5652174 127.882926,57.9275362 C129.195704,55.2898551 129.852092,52.2801932 129.852092,48.8985507 C129.852092,45.5169082 129.195704,42.5241546 127.882926,39.9202899 C126.570149,37.3164251 124.769288,35.2536232 122.480343,33.7318841 C120.191397,32.2101449 117.599504,31.4492754 114.704661,31.4492754 C111.809819,31.4492754 109.217925,32.2101449 106.92898,33.7318841 C104.640035,35.2536232 102.839174,37.3164251 101.526397,39.9202899 C100.213619,42.5241546 99.5572308,45.5169082 99.5572308,48.8985507 C99.5572308,52.2801932 100.213619,55.2898551 101.526397,57.9275362 C102.839174,60.5652174 104.640035,62.6449275 106.92898,64.1666667 C109.217925,65.6884058 111.809819,66.4492754 114.704661,66.4492754 Z M157.313493,75.4782609 L157.313493,22.4202899 L167.916694,22.4202899 L168.421609,31.1449275 C169.768047,28.1690821 171.63623,25.852657 174.026158,24.1956522 C176.416086,22.5386473 179.226776,21.7101449 182.458228,21.7101449 C183.468057,21.7101449 184.444224,21.7777778 185.386731,21.9130435 C186.329238,22.0483092 187.170762,22.2850242 187.911303,22.6231884 L186.598526,33.9855072 C185.857985,33.7149758 185.083783,33.5289855 184.27592,33.4275362 C183.468057,33.326087 182.660194,33.2753623 181.852331,33.2753623 C177.813016,33.2753623 174.648886,34.6280193 172.359941,37.3333333 C170.070996,40.0386473 168.926523,43.7922705 168.926523,48.5942029 L168.926523,75.4782609 L157.313493,75.4782609 Z M224.764111,77 C220.85944,77 217.274548,76.3067633 214.009435,74.9202899 C210.744322,73.5338164 207.899971,71.589372 205.476382,69.0869565 C203.052794,66.5845411 201.18461,63.6256039 199.871833,60.2101449 C198.559056,56.794686 197.902667,53.0241546 197.902667,48.8985507 C197.902667,44.9082126 198.559056,41.2222222 199.871833,37.8405797 C201.18461,34.4589372 203.002302,31.5 205.324908,28.9637681 C207.647514,26.4275362 210.390882,24.4492754 213.555012,23.0289855 C216.719142,21.6086957 220.15256,20.8985507 223.855265,20.8985507 C227.55797,20.8985507 230.940897,21.557971 234.004044,22.8768116 C237.067191,24.1956522 239.726406,26.0724638 241.98169,28.5072464 C244.236975,30.942029 245.970514,33.8333333 247.182308,37.1811594 C248.394103,40.5289855 249,44.2318841 249,48.2898551 L249,51.7391304 L209.919629,51.7391304 C210.256238,54.8502415 211.080932,57.5386473 212.393709,59.8043478 C213.706486,62.0700483 215.406365,63.8115942 217.493344,65.0289855 C219.580323,66.2463768 222.003912,66.8550725 224.764111,66.8550725 C230.284508,66.8550725 234.59311,64.3864734 237.689918,59.4492754 L247.889188,63.4057971 C246.677394,66.178744 244.910194,68.5966184 242.587588,70.6594203 C240.264982,72.7222222 237.572105,74.294686 234.508958,75.3768116 C231.445811,76.4589372 228.197529,77 224.764111,77 Z M223.855265,30.3333333 C221.498998,30.3333333 219.395188,30.8743961 217.543836,31.9565217 C215.692483,33.0386473 214.127248,34.5603865 212.848132,36.5217391 C211.569016,38.4830918 210.693831,40.7826087 210.222577,43.4202899 L236.882055,43.4202899 C236.478124,40.7826087 235.703922,38.4830918 234.559449,36.5217391 C233.414977,34.5603865 231.917064,33.0386473 230.065712,31.9565217 C228.214359,30.8743961 226.14421,30.3333333 223.855265,30.3333333 Z" id="Combined-Shape"></path>
            </g>
            <path d="M47.3333333,26.6666667 L71,26.6666667 L71,74 C57.9292609,74 47.3333333,63.4040724 47.3333333,50.3333333 L47.3333333,26.6666667 Z M23.6666667,26.6666667 L23.6666667,3 L71,3 L71,26.6666667 L23.6666667,26.6666667 Z M0,3 L23.6666667,3 L23.6666667,26.6666667 C10.5959276,26.6666667 1.60070388e-15,16.0707391 0,3 L0,3 L0,3 Z M0,50.3333333 L23.6666667,50.3333333 L23.6666667,74 C10.5959276,74 -5.50472348e-15,63.4040724 0,50.3333333 L0,50.3333333 L0,50.3333333 Z" id="Combined-Shape" fill="url(#radialGradient-1)"></path>
        </g>
    </g>
</svg>